<svg version="1.2" xmlns="http://www.w3.org/2000/svg" viewBox="0 0 535 320" width="535" height="320">
	<title>Resize_20220619_100850_0243</title>
	<style>
		.s0 { fill: #0b0908 } 
		.s1 { fill: #614b2c } 
		.s2 { fill: #d9020d } 
		.s3 { fill: #ca02f7 } 
		.s4 { fill: #03b304 } 
		.s5 { fill: #d0a6da } 
		.s6 { fill: #d5a604 } 
		.s7 { fill: #dda861 } 
		.s8 { fill: #030bf3 } 
		.s9 { fill: #04f0f8 } 
	</style>
	<g id="Background">
		<path id="Path 0" class="s0" d="m-0.1 0h535.1v320h-534.5l-0.3-160z"/>
		<path id="Path 1" class="s1" d="m0.7 279c0.2 2.5 0.2 6.8 0 9.5-0.2 2.8-0.3 0.7-0.3-4.5 0-5.2 0.1-7.5 0.3-5z"/>
		<path id="Path 2" class="s2" d="m66 15l8.3 10.2c5.9 7.3 11.1 12.5 18.6 18.2 5.8 4.5 11.8 9.9 13.3 12.1 2.2 3 2.8 5.1 2.8 8.5 0 2.6-1 6.4-2.3 8.9-1.2 2.5-4.7 6.8-7.8 9.5-3.1 2.8-8.8 6.6-12.5 8.5-3.8 1.8-8.9 3.6-11.4 3.8-2.5 0.3-6.5 0.3-9-0.1-2.5-0.3-6.5-1.9-9-3.5-2.5-1.6-10.4-9.4-17.6-17.3-7.2-7.9-14.3-16.1-15.8-18.3-2.6-3.9-2.7-4.3-2.8-21.6-0.1-9.7 0.2-17.9 0.7-18.2 0.5-0.4 10.7-0.7 44.5-0.7zm374.3 210.1c2-0.1 7.2 0.6 11.4 1.5 4.3 0.9 11.4 3.2 15.8 5.3 5.7 2.7 9.1 5 11.8 8.2 2 2.4 4 5.8 4.3 7.4 0.4 1.7 0.3 4.4-0.1 6-0.3 1.6-2.7 6.4-5.1 10.5-2.5 4.1-6.2 9.6-8.4 12.3-3.1 3.7-4.6 4.7-7 4.7-2.2 0-3.7-0.9-5.6-3.2-1.4-1.8-5.6-7.8-9.2-13.3-3.6-5.5-8.7-13.8-11.4-18.5-2.8-4.7-5.2-9.6-5.5-11-0.3-1.4-0.2-3.7 0.2-5.1 0.4-1.4 1.7-3.1 2.9-3.7 1.1-0.6 3.8-1.1 5.8-1.1z"/>
		<path id="Path 3" class="s3" d="m350.4 50c0.9 0 2.7 1.5 4.1 3.3 1.4 1.7 5.1 8.6 8.1 15.2 3 6.6 8 17 11 23 4.2 8.3 5.7 12.5 6.1 17q0.6 6-0.7 9.5c-0.8 1.9-2.5 5-3.9 6.9-1.4 1.9-4.8 4.7-7.6 6.2q-5 2.9-9.2 2.9c-2.4 0-6-0.9-8-1.9-2.1-1.1-5.2-3.4-6.9-5.3-1.7-1.8-6.7-8-11.1-13.8-4.4-5.8-9.1-12.3-10.3-14.5-1.6-2.8-2.1-4.7-1.5-6.5 0.3-1.4 2.6-5.2 4.9-8.5 2.4-3.3 6.9-10.5 10.1-16 3.2-5.5 7.5-11.7 9.6-13.8 2-2 4.4-3.7 5.3-3.7zm-190.5 157c2 0.1 5 0.9 6.6 1.8 1.7 0.9 9.1 6.1 16.5 11.4 7.4 5.3 15 10.9 16.7 12.5 1.8 1.5 4.2 4.1 5.3 5.8 1.2 1.9 2 4.7 2 7.5 0 2.5-0.7 5.6-1.6 7-1 1.4-3.5 4.4-5.8 6.8-2.3 2.4-6.8 5.8-10.1 7.7-3.3 1.8-8.5 4-11.5 4.9-3 0.9-8.3 1.6-11.7 1.6-4.5 0-7.7-0.7-11-2.2-2.5-1.3-6-3.9-7.6-5.8-1.7-1.9-3.9-5.5-5-8-1.5-3.5-1.8-5.9-1.4-10.5 0.3-3.3 2.4-11.8 4.7-19 2.4-7.2 5-14.1 5.8-15.5 0.9-1.4 2.2-3.3 3-4.2 0.9-1.1 2.8-1.8 5.1-1.8z"/>
		<path id="Path 4" class="s4" d="m72.7 125c0.7 0 1.5 0.5 1.8 1 0.3 0.5 2.6 2.1 5.2 3.4 2.7 1.3 8.2 3.3 12.3 4.5 4.2 1.2 10.4 2.1 14.2 2.1 5.5 0 7.2 0.4 8.8 2 1.1 1.1 2.3 3.7 2.6 5.8 0.4 2 0.5 6.9 0.2 10.7-0.3 5.2-1.2 8.4-3.4 12.4-1.6 3.1-4.7 6.7-6.9 8.4-3.6 2.6-4.7 2.8-10 2.5-4.2-0.2-7.8-1.3-11.8-3.3-3.3-1.7-8.9-5.7-12.5-9.1-4-3.6-8-8.5-9.9-12-2.2-3.9-3.2-7.3-3.3-10.2 0-2.3 0.6-5.7 1.3-7.5 0.8-1.7 3.3-4.9 5.7-7 2.4-2 5-3.7 5.7-3.7zm237.6 118.9l1.1 5.8c0.9 4.6 1.6 6 3.6 6.9 1.9 0.9 3.5 0.9 7-0.1 2.5-0.6 8.4-2.9 13.3-4.9 8.4-3.6 8.8-3.7 10.3-1.9 0.9 1 2.2 3.3 3 5 0.8 1.8 1.4 4.5 1.4 6 0 1.6-1.5 8.4-3.4 15.3-1.9 6.9-3.9 14.4-5.6 21h-46l-1.7-4.8c-1.3-3.3-1.8-7.7-1.8-14.7 0-9.4 0.2-10.3 3.3-16 1.8-3.3 4.3-7.1 5.5-8.5 1.2-1.4 4-4 6.1-5.8z"/>
		<path id="Path 5" class="s5" d="m214.2 17c8.9 0 11.8 0.3 13.8 1.7 1.4 0.9 6.3 5.3 11 9.8 4.7 4.5 10.8 9.5 13.5 11 2.8 1.6 7 4.5 9.4 6.4 2.4 2 5.7 5.4 7.3 7.6 1.8 2.6 2.9 5.2 2.8 7.5 0 2.6-0.8 4.3-3.2 6.6-1.8 1.7-4.9 4.2-6.8 5.5-1.9 1.3-7.8 6.2-13.1 10.9-5.3 4.7-10.6 9.3-11.8 10.3-1.1 0.9-3.4 2.4-5.1 3.2-1.6 0.8-4.9 1.5-7.2 1.5-2.4 0-6-0.6-8.2-1.3-2.1-0.6-5.4-2.5-7.4-4.2-1.9-1.7-4.3-4.7-5.3-6.8-1.6-3.1-1.9-6.1-1.9-18.5 0-10.3-0.6-18-2-25.7-1.1-6-2-13.1-2-15.6 0.1-3.4 0.7-5.3 2.5-7.3 2.3-2.5 2.8-2.6 13.7-2.6z"/>
		<path id="Path 6" class="s6" d="m174.5 53.1c2.7 0 9.7 1 26 4.4l0.6 12.5c0.4 9.8 1 13.4 2.6 16.5 1.1 2.2 3.6 5.3 5.5 7 2 1.7 5.3 3.6 7.4 4.2 2.2 0.7 5.8 1.3 8.2 1.3 2.3 0 5.8-0.8 7.7-1.8 1.9-0.9 3.8-1.3 4.2-0.9 0.5 0.5-1.3 2.8-4 5.3-4.4 4.1-5.1 4.4-10.2 4.4-4.3 0-6.8-0.7-11.5-3.3-3.3-1.7-10.3-7-15.6-11.7-5.3-4.7-13.3-12.6-17.8-17.5-4.4-5-9-11-10.1-13.4-2-4.3-2-4.3 0-5.7 1.1-0.8 4.2-1.4 7-1.3zm-51.5 34c1.9 0 5.3 0.8 7.5 1.7 2.2 1 5.5 3.6 7.3 5.8 1.8 2.1 4.2 6.4 5.3 9.4 1.5 4 2 7.2 1.7 11.6-0.2 4.6-0.9 6.8-2.9 9.5-1.4 1.9-4.8 4.6-7.5 6.1-2.7 1.5-7.2 3.2-9.9 3.8-2.8 0.7-9.5 1.1-15 1.1-6.8-0.1-12.4-0.8-17.5-2.2-4.1-1.2-9.5-3.1-12-4.4-2.5-1.2-5.7-3.6-7.3-5.4-1.5-1.8-2.7-4.3-2.7-5.9 0-1.5 0.9-4.2 2-6 1.1-1.7 5.3-5.3 9.3-7.9 3.9-2.6 11.7-6.8 17.2-9.5 5.5-2.6 12.5-5.4 15.5-6.2 3-0.8 7.1-1.5 9-1.5z"/>
		<path id="Path 7" class="s7" d="m201.7 62c0.2 3 0.2 8.2 0 11.5-0.2 3.3-0.3 0.8-0.3-5.5 0-6.3 0.1-9 0.3-6zm79.3 77.3c7.4 0.3 12.1 1 16 2.5 3 1.2 7.5 3.5 10 5.1 2.5 1.6 7.2 5.5 10.4 8.7 3.3 3.3 6.7 7.7 7.7 9.9 1 2.2 1.9 5.3 1.9 7 0 1.7-0.9 4.8-1.9 7-1 2.2-4 6-6.7 8.4-2.7 2.5-6.9 5.4-9.4 6.5-3.5 1.6-6.5 2.1-13.5 2.1-7.9 0-9.8-0.4-15.5-3.1-3.6-1.6-8.5-4.8-10.9-7-2.4-2.1-5.4-5.5-6.6-7.4-1.3-1.9-3-6.2-4-9.5-1.2-4.1-1.6-8.1-1.3-12.5 0.3-4.1 1.2-7.8 2.5-10 1.1-1.9 4-4.5 6.4-5.8 4-2.1 5.4-2.3 14.9-1.9z"/>
		<path id="Path 8" class="s8" d="m501.1 162.3c3 0.1 5.5 0.9 6.9 2.2 1.3 1.1 3.1 3.8 4.1 6 1.4 2.9 1.9 6.4 1.9 13 0 4.9-0.7 11.8-1.5 15.2-0.8 3.5-2.4 8.1-3.5 10.3-1.1 2.2-3.7 5.8-5.8 8.1-2 2.2-6.1 5.2-9 6.5-3.5 1.6-7 2.4-11 2.4-4.2 0.1-6.4-0.5-8.5-2-1.5-1.1-3.4-3.9-4.3-6.3-1.2-3.3-1.5-7.6-0.9-37.5l3.2-4.4c1.9-2.6 5.5-5.6 9-7.6 3.2-1.8 7.8-3.9 10.3-4.7 2.5-0.8 6.6-1.4 9.1-1.2z"/>
		<path id="Path 9" class="s9" d="m337.4 190.5c1.7 0.7 3.8 2.5 4.8 4.1 0.9 1.6 2.1 7.4 2.7 13.4 1 9.2 1.7 11.7 5.6 19.8 2.5 5 4.5 10.3 4.5 11.7 0 1.6-1 3.2-2.7 4.4-1.6 1-8 4-14.3 6.6-6.3 2.6-13.5 5.3-16 6-3.4 1-5.1 1-7 0.2-1.5-0.8-2.7-2.4-3.2-4.7-0.5-1.9-0.6-6-0.3-9 0.3-3 1.6-9.6 2.9-14.5 1.4-4.9 2.9-12.8 3.5-17.5 0.6-4.7 1.6-10.1 2.1-12 0.5-1.9 2.1-4.6 3.5-6 1.6-1.5 4.4-2.7 6.7-3 2.2-0.3 5.4-0.1 7.2 0.5z"/>
		<path id="Path 10" class="s1" d="m20.7 25c0.2 4.7 0.2 12.8 0 18-0.1 5.2-0.3 1.4-0.3-8.5 0-9.9 0.2-14.2 0.3-9.5zm257.8 113.3c3.9 0 5.2 0.2 3 0.4-2.2 0.2-5.4 0.2-7 0-1.6-0.2 0.1-0.4 4-0.4z"/>
	</g>
</svg>